HIERARCHY
ROOT HipCenter
{
    OFFSET 0.0 0.0 -0.0
    CHANNELS 6 Xposition Yposition Zposition Zrotation Xrotation Yrotation
    JOINT Spine
    {
        OFFSET 0.0 0.12098976224660873 0.0
        CHANNELS 3 Zrotation Xrotation Yrotation
        JOINT ShoulderCenter
        {
            OFFSET 0.0 0.33491605520248413 0.0
            CHANNELS 3 Zrotation Xrotation Yrotation
            JOINT LeftShoulder
            {
                OFFSET 0.19045612215995789 0.0 0.0
                CHANNELS 3 Zrotation Xrotation Yrotation
                JOINT LeftElbow
                {
                    OFFSET 0.29751673340797424 0.0 0.0
                    CHANNELS 3 Zrotation Xrotation Yrotation
                    JOINT LeftWrist
                    {
                        OFFSET 0.29606032371520996 0.0 0.0
                        CHANNELS 3 Zrotation Xrotation Yrotation
                        JOINT LeftHand
                        {
                            OFFSET 0.04405241832137108 0.0 0.0
                            CHANNELS 3 Zrotation Xrotation Yrotation
                            End Site
                            {
                                OFFSET 0.017620965838432312 0.0 0.0
                            }
                        }
                    }
                }
            }
            JOINT RightShoulder
            {
                OFFSET -0.19045612215995789 0.0 0.0
                CHANNELS 3 Zrotation Xrotation Yrotation
                JOINT RightElbow
                {
                    OFFSET -0.29751673340797424 0.0 0.0
                    CHANNELS 3 Zrotation Xrotation Yrotation
                    JOINT RightWrist
                    {
                        OFFSET -0.29606032371520996 0.0 0.0
                        CHANNELS 3 Zrotation Xrotation Yrotation
                        JOINT RightHand
                        {
                            OFFSET -0.04405241832137108 0.0 0.0
                            CHANNELS 3 Zrotation Xrotation Yrotation
                            End Site
                            {
                                OFFSET -0.017620965838432312 0.0 0.0
                            }
                        }
                    }
                }
            }
            End Site
            {
                OFFSET 0.0 0.13396641612052917 0.0
            }
        }
    }
    JOINT LeftHip
    {
        OFFSET 0.13974791765213013 0.0 0.0
        CHANNELS 3 Zrotation Xrotation Yrotation
        JOINT LeftKnee
        {
            OFFSET 0.0 -0.4064266085624695 0.0
            CHANNELS 3 Zrotation Xrotation Yrotation
            JOINT LeftAnkle
            {
                OFFSET 0.0 -0.4478447735309601 0.0
                CHANNELS 3 Zrotation Xrotation Yrotation
                JOINT LeftFoot
                {
                    OFFSET 0.0 -0.10072599351406097 0.0
                    CHANNELS 3 Zrotation Xrotation Yrotation
                    End Site
                    {
                        OFFSET 0.0 0.0 0.04029040038585663
                    }
                }
            }
        }
    }
    JOINT RightHip
    {
        OFFSET -0.13974791765213013 0.0 0.0
        CHANNELS 3 Zrotation Xrotation Yrotation
        JOINT RightKnee
        {
            OFFSET 0.0 -0.4064266085624695 0.0
            CHANNELS 3 Zrotation Xrotation Yrotation
            JOINT RightAnkle
            {
                OFFSET 0.0 -0.4478447735309601 0.0
                CHANNELS 3 Zrotation Xrotation Yrotation
                JOINT RightFoot
                {
                    OFFSET 0.0 -0.10072599351406097 0.0
                    CHANNELS 3 Zrotation Xrotation Yrotation
                    End Site
                    {
                        OFFSET 0.0 0.0 0.04029040038585663
                    }
                }
            }
        }
    }
}
MOTION
Frames: 5
Frame Time: 0.03333333333333333
0.593999981880188 -0.10100000351667404 1.6799999475479126 169.99214456632615 -81.81385839755637 -10.406549347401487 -1.5014701583987224 -0.31076297328000657 -0.011923908992738427 -1.015758730107734e-06 -2.831717710903376e-06 17.315072605865446 115.4186459668635 4.393900912247303 -69.95752866797923 -6.5751048721505125e-06 -1.5830306117665264e-06 18.28662742080922 4.234246698647164e-06 -56.21346835543337 32.689330729326535 8.827812596100317e-32 -6.3611093629270335e-15 1.5902773407317584e-15 -109.67461258455121 36.26696265823764 85.18988566862701 5.9447751791834446e-06 -1.9469157956582337e-06 -18.96096938716555 179.99999957468225 -64.25153503378958 128.94985847291989 1.5902773407317588e-15 6.361109362927035e-15 -8.827812596100317e-32 109.8902168304087 -50.57582884908613 -147.12341239614517 34.37363487178437 -3.0867576228145444 167.8281295713086 98.1461705164378 -4.30454896858275 179.532790281251 3.1805546814635168e-15 4.4139062980501586e-32 1.5902773407317584e-15 -110.3391063302085 -54.59981782229938 158.52207083815168 -32.9132039759096 -0.03270132718552108 -179.86428523856847 -103.24366953715939 12.764339070280045 179.93302572635943 0.0 0.0 3.1805546814635168e-15
0.593999981880188 -0.12200000137090683 1.6369999647140503 172.40534203134902 -75.49668853576824 -9.4430623534548 -0.2762980898288045 -1.7318869038536262 -0.10639007327373769 -3.717749222308301e-07 -2.782269731907081e-06 18.918499868177772 114.05133204299824 3.4839046974817065 -69.07661292756853 7.152146178924569e-07 3.9931270968265915e-06 20.60022473791943 -9.478897201853415e-06 -62.323254810698245 35.3430017173392 0.0 0.0 1.5902773407317588e-15 -110.10808196241456 35.40926287994968 83.35376031039578 3.1604935750358703e-06 2.9179094858699008e-06 -20.469997642984655 -179.99999910844338 -62.17996991189696 125.65687274406955 3.1805546814635168e-15 -4.4139062980501586e-32 -1.5902773407317584e-15 114.85206438171292 -45.79549058311711 -130.7478897323871 38.813784721237326 -9.273213573320822 154.73592318257212 100.70952979849086 -0.4208808090769603 179.92408179099522 4.413906298050159e-31 -6.361109362927033e-15 7.95138670365879e-15 -116.49855337687544 -53.347813754366115 152.2241547266736 -36.50162428510421 2.5040454009774735 172.0193808577052 -104.73135398563937 6.1324796333510445 179.70576151386905 -6.3611093629270335e-15 1.7655625192200634e-31 -3.1805546814635168e-15
0.5929999947547913 -0.14499999582767487 1.5880000591278076 175.81505699438844 -70.00851701152176 -6.935174098927181 -0.48339421377404135 -3.0065349472695826 -0.2663464225744578 4.6857153743876813e-07 -6.24860751475077e-07 19.836366848216525 112.2139687994155 1.1313957026638313 -70.29890764988276 3.7375056898588115e-07 4.423428875537785e-06 24.02709228108564 -7.417563547732938e-06 -66.41627933740966 34.03722086512199 6.3611093629270335e-15 -6.3611093629270335e-15 -3.1805546814635164e-15 -109.85413340648388 33.41650814245164 83.41265156724471 -6.773838775367973e-06 3.0797243430022178e-06 -22.352865040284982 179.9999938987481 -63.63170348601567 123.07656557005245 -4.770832022195275e-15 -1.3241718894150476e-31 3.1805546814635168e-15 117.15318691217647 -42.900926401890416 -121.68258804883752 41.897650121721625 -13.329234441056936 150.80067667581815 105.11057970728393 -0.48513787086432536 179.90751800259855 0.0 0.0 -7.951386703658792e-15 -120.84594177212979 -52.37191933065915 149.6536571983217 -38.49792003592813 4.739615797816973 166.8245571265757 -108.15728812226234 3.0495666228393388 179.9025252254325 1.7655625192200634e-31 6.3611093629270335e-15 -3.1805546814635168e-15
0.5889999866485596 -0.16599999368190765 1.531999945640564 -179.99999959211357 -65.55602035881493 -3.1472266728086717 -1.6060399668159875 -2.126240590976253 -0.224923950185865 2.2799982460576467e-07 -1.8318597979684053e-06 18.143828956520576 113.91314457915722 1.6480910975104452 -73.44328189489147 -4.213456462940518e-07 -9.83080646037668e-07 29.12987099713142 1.7327322093589825e-06 -66.83606405597624 39.14872099144605 6.3611093629270335e-15 -2.648343778830095e-31 -4.770832022195275e-15 -109.9323396738402 29.499164331572334 84.43398118708802 4.751779283180692e-06 -2.687304677653266e-07 -25.54247604610751 -179.99999720717273 -67.50500499389744 120.61314308218361 0.0 0.0 1.5902773407317588e-15 116.93703804678587 -42.519993041961314 -116.73232087491787 42.735660291082205 -16.22721662901556 147.8651041495949 109.33246953756479 -1.6773794364685841 179.72375681810917 -3.1805546814635168e-15 1.7655625192200634e-31 -6.3611093629270335e-15 -123.21648408049835 -52.26371028553118 150.35439008143663 -38.9703138699765 5.901544706415061 164.53244352137486 -110.71527167521366 2.319013530934098 179.9809551311669 0.0 0.0 -7.951386703658792e-15
0.5839999914169312 -0.18199999630451202 1.465999960899353 -176.1859173544705 -60.20036864405854 0.5930620199293202 -3.259235323129801 -0.26120945206215807 -0.02778899147205259 -4.060122058797555e-07 -4.9196339161202635e-06 15.105160725599337 114.54429718881467 2.849976511840409 -76.11396170352924 5.389360523283794e-07 2.894745687297752e-07 34.36789570140053 -1.535104268342125e-06 -53.69808046139842 53.06022016446292 6.3611093629270335e-15 -6.3611093629270335e-15 3.531125038440127e-31 -105.90338577487428 24.85470136856799 83.47182972647101 4.7231908802166346e-07 -1.6180544128326415e-07 -30.8459166851422 -179.9999879672171 -79.58353057803882 109.01127075939782 0.0 0.0 1.1927080055488188e-15 116.2837375997984 -43.83444234331197 -118.27065218274755 41.97869363153696 -14.488718104330315 151.31521842592045 111.58421112041864 -3.5377742053624717 179.5839289507588 3.1805546814635168e-15 6.3611093629270335e-15 -3.1805546814635168e-15 -125.24047433692233 -52.06969482475992 149.2435259167401 -37.922075646434045 4.12273010207222 168.66976970288664 -110.49465524947254 5.3290844792349406 -179.96774519798143 3.1805546814635168e-15 -6.3611093629270335e-15 1.5902773407317584e-15
